<?xml version="1.0" standalone="no"?>
<!DOCTYPE svg PUBLIC "-//W3C//DTD SVG 20010904//EN"
 "http://www.w3.org/TR/2001/REC-SVG-20010904/DTD/svg10.dtd">
<svg version="1.0" xmlns="http://www.w3.org/2000/svg"
 width="99.000000pt" height="99.000000pt" viewBox="0 0 99.000000 99.000000"
 preserveAspectRatio="xMidYMid meet">
<metadata>
Created by potrace 1.14, written by Peter Selinger 2001-2017
</metadata>
<g transform="translate(0.000000,99.000000) scale(0.100000,-0.100000)"
fill="#000000" stroke="none">
<path d="M177 723 l-97 -67 0 -153 0 -154 67 47 c38 26 83 58 100 71 l33 24
72 -53 c40 -29 85 -61 99 -70 l25 -16 -1 149 c0 81 -3 150 -5 152 -28 21 -190
137 -193 137 -1 0 -46 -30 -100 -67z m100 25 c-3 -7 -5 -2 -5 12 0 14 2 19 5
13 2 -7 2 -19 0 -25z m0 -120 c-3 -7 -5 -2 -5 12 0 14 2 19 5 13 2 -7 2 -19 0
-25z m0 -70 c-3 -8 -6 -5 -6 6 -1 11 2 17 5 13 3 -3 4 -12 1 -19z m0 -50 c-3
-7 -5 -2 -5 12 0 14 2 19 5 13 2 -7 2 -19 0 -25z"/>
<path d="M594 713 l-90 -67 1 -143 c0 -79 4 -143 8 -143 4 0 49 27 98 61 72
48 90 65 86 80 -3 10 -1 19 4 19 5 0 9 -10 9 -22 0 -18 23 -38 95 -86 l95 -62
0 144 0 144 -52 40 c-29 21 -69 53 -88 71 -19 17 -44 31 -56 31 -11 0 -61 -30
-110 -67z m113 -5 c-3 -7 -5 -2 -5 12 0 14 2 19 5 13 2 -7 2 -19 0 -25z m0
-85 c-3 -10 -5 -4 -5 12 0 17 2 24 5 18 2 -7 2 -21 0 -30z m0 -75 c-3 -7 -5
-2 -5 12 0 14 2 19 5 13 2 -7 2 -19 0 -25z"/>
<path d="M138 322 l-58 -3 0 -54 c0 -42 4 -55 15 -55 11 0 15 11 15 40 0 22 5
40 10 40 6 0 10 -18 10 -40 0 -29 4 -40 15 -40 11 0 15 12 15 46 0 27 4 43 10
39 6 -3 10 -24 10 -46 0 -28 4 -39 15 -39 11 0 15 13 15 54 0 30 -3 56 -7 58
-5 2 -34 2 -65 0z"/>
<path d="M272 322 c-51 -4 -54 -27 -3 -26 18 0 30 -4 28 -10 -2 -6 -17 -10
-33 -9 -27 1 -30 -2 -32 -33 l-3 -34 51 0 50 0 0 54 c0 30 -3 56 -7 58 -5 2
-27 2 -51 0z m28 -79 c0 -7 -9 -13 -20 -13 -11 0 -20 6 -20 13 0 7 9 13 20 13
11 0 20 -6 20 -13z"/>
<path d="M682 313 c-9 -7 -12 -13 -7 -14 6 -1 15 -2 20 -4 6 -1 18 -3 28 -3
10 -1 16 -6 13 -11 -4 -5 -14 -8 -24 -6 -26 4 -40 -12 -34 -40 4 -22 9 -25 48
-25 l44 0 0 54 0 54 -36 4 c-20 2 -43 -1 -52 -9z m58 -70 c0 -7 -9 -13 -20
-13 -12 0 -17 5 -14 13 3 8 11 14 19 14 8 0 15 -6 15 -14z"/>
<path d="M350 265 c0 -42 3 -55 15 -55 14 0 20 22 16 63 -1 9 3 17 8 17 9 0
17 -45 12 -72 0 -5 8 -8 19 -8 17 0 19 7 18 55 l-2 55 -43 0 -43 0 0 -55z"/>
<path d="M511 308 c4 -31 -2 -38 -26 -34 -23 4 -25 2 -25 -30 0 -34 0 -34 45
-34 l45 0 0 55 c0 49 -2 55 -20 55 -12 0 -20 -6 -19 -12z m3 -63 c3 -9 0 -15
-9 -15 -8 0 -15 7 -15 15 0 8 4 15 9 15 5 0 11 -7 15 -15z"/>
<path d="M570 310 c0 -5 7 -10 15 -10 8 0 15 5 15 10 0 6 -7 10 -15 10 -8 0
-15 -4 -15 -10z"/>
<path d="M620 265 c0 -41 4 -55 14 -55 17 0 22 21 18 72 -3 24 -9 38 -18 38
-10 0 -14 -15 -14 -55z"/>
<path d="M793 293 c2 -33 12 -42 43 -38 14 1 24 -3 24 -11 0 -8 -9 -11 -24 -8
-13 2 -29 -2 -36 -11 -11 -13 -6 -15 39 -15 50 0 51 1 51 30 0 17 -4 31 -10
31 -5 1 -20 2 -32 3 -35 2 -32 23 3 22 18 -1 34 5 36 12 3 8 -10 12 -46 12
-48 0 -50 -1 -48 -27z"/>
<path d="M569 275 c-4 -52 -2 -60 14 -63 14 -3 17 4 17 37 0 30 -4 41 -15 41
-8 0 -15 -7 -16 -15z"/>
</g>
</svg>
